<?xml version="1.0" standalone="no"?>
<!DOCTYPE svg PUBLIC "-//W3C//DTD SVG 1.1//EN" "http://www.w3.org/Graphics/SVG/1.1/DTD/svg11.dtd" >
<svg xmlns="http://www.w3.org/2000/svg" xmlns:xlink="http://www.w3.org/1999/xlink" version="1.1">
<metadata>
Created by FontForge 20170731 at Mon Sep 27 10:42:08 2021
 By Aleksey,,,
Copyright 2020 The Open Sans Project Authors (https://github.com/googlefonts/opensans)
</metadata>
<defs>
<font id="OpenSans-Italic" horiz-adv-x="0" >
  <font-face 
    font-family="Open Sans"
    font-weight="400"
    font-style="italic"
    font-stretch="normal"
    units-per-em="2048"
    panose-1="0 0 0 0 0 0 0 0 0 0"
    ascent="1638"
    descent="-410"
    bbox="-455 -531 1623 1565"
    underline-thickness="50"
    underline-position="-175"
    slope="-12"
    unicode-range="U+000D-FB4B"
  />
<missing-glyph horiz-adv-x="1229" 
 />
    <glyph glyph-name=".notdef" horiz-adv-x="1229" 
 />
    <glyph glyph-name="glyph1" 
 />
    <glyph glyph-name="glyph1" 
 />
    <glyph glyph-name="uni000D" unicode="&#xd;" horiz-adv-x="532" 
 />
    <glyph glyph-name="space" unicode=" " horiz-adv-x="532" 
 />
    <glyph glyph-name="hyphen" unicode="-" horiz-adv-x="641" 
d="M56 472l34 154h482l-33 -154h-483z" />
    <glyph glyph-name="uni00A0" unicode="&#xa0;" horiz-adv-x="532" 
 />
    <glyph glyph-name="uni05B0" unicode="&#x5b0;" 
d="M-169 -240q-29 0 -42.5 13t-13.5 35q0 43 23.5 75t65.5 32q30 0 43.5 -14t13.5 -37q0 -45 -24.5 -74.5t-65.5 -29.5zM-224 -499q-29 0 -42.5 13.5t-13.5 35.5q0 43 23.5 75t65.5 32q31 0 44.5 -13.5t13.5 -36.5q0 -45 -24.5 -75.5t-66.5 -30.5z" />
    <glyph glyph-name="uni05B1" unicode="&#x5b1;" 
d="M159 -244q-29 0 -42.5 13.5t-13.5 35.5q0 43 23.5 75t65.5 32q29 0 42.5 -14t13.5 -37q0 -46 -24 -75.5t-65 -29.5zM448 -244q-30 0 -43 13t-13 35q0 44 23.5 76t65.5 32q29 0 43 -14t14 -37q0 -46 -24.5 -75.5t-65.5 -29.5zM705 -244q-29 0 -42 13.5t-13 34.5
q0 43 23 75.5t65 32.5q30 0 43.5 -14t13.5 -37q0 -46 -24.5 -75.5t-65.5 -29.5zM248 -502q-29 0 -42 13t-13 35q0 43 23 75.5t65 32.5q30 0 44 -14t14 -36q0 -46 -24.5 -76t-66.5 -30zM650 -502q-29 0 -42 13t-13 35q0 43 23 75.5t65 32.5q30 0 44 -14t14 -36
q0 -46 -24.5 -76t-66.5 -30z" />
    <glyph glyph-name="uni05B2" unicode="&#x5b2;" 
d="M164 -206l17 82h358l-17 -82h-358zM618 -502q-29 0 -42.5 13t-13.5 35q0 43 23.5 75.5t65.5 32.5q30 0 44 -14t14 -36q0 -46 -25 -76t-66 -30zM673 -244q-29 0 -42.5 13.5t-13.5 35.5q0 43 23.5 75t65.5 32q29 0 43 -14t14 -37q0 -46 -24.5 -75.5t-65.5 -29.5z" />
    <glyph glyph-name="uni05B3" unicode="&#x5b3;" 
d="M-360 -408l43 202h-138l17 82h358l-17 -82h-139l-43 -202h-81zM0 -502q-30 0 -43 13t-13 35q0 43 23 75.5t66 32.5q30 0 44 -14t14 -36q0 -46 -25 -76t-66 -30zM54 -244q-29 0 -42 13.5t-13 35.5q0 43 23.5 75t65.5 32q29 0 43 -14t14 -37q0 -46 -24.5 -75.5t-66.5 -29.5
z" />
    <glyph glyph-name="uni05B4" unicode="&#x5b4;" 
d="M-170 -243q-29 0 -42 13.5t-13 35.5q0 43 23 75t65 32q30 0 44 -14t14 -38q0 -44 -24.5 -74t-66.5 -30z" />
    <glyph glyph-name="uni05B5" unicode="&#x5b5;" 
d="M538 -238q-29 0 -42.5 13t-13.5 35q0 43 23 75t66 32q30 0 43.5 -14t13.5 -36q0 -46 -24 -75.5t-66 -29.5zM249 -238q-29 0 -42.5 13t-13.5 35q0 44 23.5 75.5t65.5 31.5q29 0 42.5 -14t13.5 -36q0 -46 -24 -75.5t-65 -29.5z" />
    <glyph glyph-name="uni05B6" unicode="&#x5b6;" 
d="M-314 -244q-29 0 -42.5 13.5t-13.5 35.5q0 43 23.5 75t65.5 32q29 0 42.5 -14t13.5 -37q0 -45 -24 -75t-65 -30zM-25 -244q-30 0 -43 13.5t-13 35.5q0 43 23.5 75t66.5 32q29 0 43 -14t14 -37q0 -46 -24.5 -75.5t-66.5 -29.5zM-225 -502q-29 0 -42.5 13t-13.5 35
q0 43 23.5 75.5t65.5 32.5q31 0 44.5 -14t13.5 -36q0 -46 -24.5 -76t-66.5 -30z" />
    <glyph glyph-name="uni05B7" unicode="&#x5b7;" 
d="M-341 -195l18 82h366l-18 -82h-366z" />
    <glyph glyph-name="uni05B8" unicode="&#x5b8;" 
d="M-243 -401l43 201h-141l18 83h363l-17 -83h-142l-43 -201h-81z" />
    <glyph glyph-name="uni05B9" unicode="&#x5b9;" 
d="M150 1257q-29 0 -42.5 13t-13.5 35q0 44 23.5 75.5t65.5 31.5q30 0 44 -14t14 -37q0 -45 -25 -74.5t-66 -29.5z" />
    <glyph glyph-name="uni05BA" unicode="&#x5ba;" 
d="M149 1257q-29 0 -42 13t-13 34q0 44 23 76t65 32q30 0 44 -14t14 -37q0 -45 -25 -74.5t-66 -29.5z" />
    <glyph glyph-name="uni05BB" unicode="&#x5bb;" 
d="M-323 -246q-29 0 -42.5 13t-13.5 35q0 43 23.5 75t65.5 32q29 0 42.5 -14t13.5 -36q0 -46 -24 -75.5t-65 -29.5zM-202 -389q-29 0 -42.5 13.5t-13.5 35.5q0 43 23.5 75.5t65.5 32.5q30 0 44 -14t14 -37q0 -45 -24.5 -75.5t-66.5 -30.5zM-78 -531q-29 0 -42 13.5t-13 35.5
q0 44 23 76t65 32q30 0 44 -14t14 -36q0 -45 -24.5 -76t-66.5 -31z" />
    <glyph glyph-name="uni05BC" unicode="&#x5bc;" 
d="M-10 508q-29 0 -42.5 13t-13.5 35q0 44 23.5 75.5t65.5 31.5q30 0 44 -14t14 -37q0 -45 -25 -74.5t-66 -29.5z" />
    <glyph glyph-name="uni05BD" unicode="&#x5bd;" 
d="M-261 -458l68 316h92l-68 -316h-92z" />
    <glyph glyph-name="uni05BE" unicode="&#x5be;" horiz-adv-x="995" 
d="M252 1149l29 142h483l-28 -142h-484z" />
    <glyph glyph-name="uni05C1" unicode="&#x5c1;" 
d="M150 1257q-29 0 -42.5 13t-13.5 35q0 44 23.5 75.5t65.5 31.5q30 0 44 -14t14 -37q0 -45 -25 -74.5t-66 -29.5z" />
    <glyph glyph-name="uni05C2" unicode="&#x5c2;" 
d="M150 1257q-29 0 -42.5 13t-13.5 35q0 44 23.5 75.5t65.5 31.5q30 0 44 -14t14 -37q0 -45 -25 -74.5t-66 -29.5z" />
    <glyph glyph-name="uni05C7" unicode="&#x5c7;" 
d="M-218 -292l31 144h-119l16 79h317l-17 -79h-121l-31 -144h-76z" />
    <glyph glyph-name="uni05D0" unicode="&#x5d0;" horiz-adv-x="1163" 
d="M-37 0l96 454q17 77 43 145t65 123q42 58 105 97t139 56l-167 416h184l292 -744q15 5 28 11.5t25 14.5q64 34 99 89.5t56 156.5l101 472h165l-100 -472q-15 -72 -37 -128.5t-58 -112.5q-26 -37 -60.5 -67.5t-77 -53t-90.5 -35.5l169 -422h-186l-293 749q-18 -1 -37 -7.5
t-39 -18.5q-63 -35 -100.5 -99.5t-59.5 -169.5l-97 -454h-165z" />
    <glyph glyph-name="uni05D1" unicode="&#x5d1;" horiz-adv-x="1087" 
d="M-40 0l29 137h628l167 780q5 22 7 41.5t2 36.5q0 37 -10.5 63.5t-28.5 46.5q-35 44 -107 55.5t-147 11.5q-32 0 -74 -1.5t-93 -4t-112 -6.5l-15 -2l29 139q75 7 146.5 10.5t137.5 3.5q123 0 209 -14t154 -61q30 -22 48.5 -52t28.5 -66q4 -17 6.5 -36.5t2.5 -40.5
q0 -17 -1.5 -36t-5 -40t-8.5 -44l-167 -784h149l-29 -137h-946z" />
    <glyph glyph-name="uni05D2" unicode="&#x5d2;" horiz-adv-x="831" 
d="M60 -8q-30 0 -62 3.5t-68 9.5l54 152q28 -6 58 -9.5t63 -3.5q87 0 165 45.5t135.5 130t82.5 200.5l98 464q6 28 8.5 51.5t2.5 43.5q0 41 -25.5 66.5t-78.5 25.5q-35 0 -76 -5t-89 -15l29 141q46 10 90.5 14.5t86.5 4.5q75 0 128 -21t80.5 -64.5t27.5 -112.5
q0 -29 -3.5 -60t-10.5 -64l-210 -989h-135l22 206h-10q-44 -55 -94.5 -104t-115.5 -79.5t-153 -30.5z" />
    <glyph glyph-name="uni05D3" unicode="&#x5d3;" horiz-adv-x="1028" 
d="M479 0l190 895q11 54 33.5 99.5t48.5 74.5q25 28 47 47.5t42 30.5l13 7h-704l30 137h946l-26 -123q-49 -16 -85 -34.5t-74 -49.5t-63.5 -78.5t-39.5 -112.5l-190 -893h-168z" />
    <glyph glyph-name="uni05D4" unicode="&#x5d4;" horiz-adv-x="1249" 
d="M793 0l195 917q5 22 7 41.5t2 36.5q0 61 -26 97t-77 56q-37 15 -93 19.5t-111 4.5q-64 0 -169.5 -6t-260.5 -19l30 140q95 8 174 13.5t142 8t110 2.5q128 0 215.5 -14t154.5 -62q31 -23 49.5 -53.5t28.5 -66.5q4 -17 6 -37t2 -40q0 -26 -3.5 -56t-11.5 -65l-195 -917
h-169zM17 0l170 799h168l-170 -799h-168z" />
    <glyph glyph-name="uni05D5" unicode="&#x5d5;" horiz-adv-x="477" 
d="M18 0l275 1291h169l-275 -1291h-169z" />
    <glyph glyph-name="uni05D6" unicode="&#x5d6;" horiz-adv-x="598" 
d="M92 0l155 729q13 61 34.5 119t49.5 108t61 89q30 37 57 64.5t49 44.5h-281l29 137h449l-26 -124q-40 -26 -78.5 -70t-69.5 -94q-16 -25 -30 -54t-26 -59q-8 -19 -14.5 -38.5t-13 -39.5t-11.5 -41l-10 -42l-155 -729h-169z" />
    <glyph glyph-name="uni05D7" unicode="&#x5d7;" horiz-adv-x="1249" 
d="M16 0l274 1287q20 2 71.5 6t118.5 8t135.5 7t121.5 3q110 0 191 -12.5t147 -54.5q29 -18 48 -43.5t31 -57.5q9 -21 14 -46t5 -54t-4 -60.5t-12 -65.5l-195 -917h-169l195 917q5 22 7 41.5t2 36.5q0 34 -8 59t-23 45q-24 34 -68.5 49t-99 19.5t-108.5 4.5q-48 0 -112.5 -3
t-145.5 -9l-247 -1160h-169z" />
    <glyph glyph-name="uni05D8" unicode="&#x5d8;" horiz-adv-x="1249" 
d="M511 -20q-135 0 -219 52.5t-124 140.5q-26 50 -36 108.5t-10 118.5q0 55 7.5 117.5t22.5 132.5l136 641h170l-137 -641q-15 -71 -22.5 -130t-7.5 -107q0 -61 11 -109.5t33 -83.5q28 -47 80 -72.5t127 -25.5q80 0 146 29.5t115 83.5q46 48 82.5 119t61.5 153
q12 39 24.5 87t22.5 98.5t16 100t6 91.5q0 62 -10 111.5t-34 84.5q-27 42 -78.5 66.5t-126.5 24.5q-21 0 -42 -2.5t-42 -6.5l30 140q29 4 56.5 6.5t54.5 2.5q103 0 175 -30t115 -82q46 -55 62.5 -128t16.5 -148q0 -59 -8.5 -127t-25.5 -146q-15 -76 -36.5 -143t-47.5 -125
t-57 -108q-51 -83 -115 -143t-139 -96q-38 -18 -79 -30t-84.5 -18.5t-89.5 -6.5z" />
    <glyph glyph-name="uni05D9" unicode="&#x5d9;" horiz-adv-x="446" 
d="M109 467l175 824h169l-143 -673l-154 -151h-47z" />
    <glyph glyph-name="uni05DA" unicode="&#x5da;" horiz-adv-x="1000" 
d="M451 -492l258 1212q11 45 16 85t5 75q0 72 -17 127t-53 92q-71 73 -216 73q-66 0 -124 -8.5t-122 -25.5q-17 -5 -28.5 -8t-17.5 -4l31 144q54 16 139 28t179 12q87 0 158.5 -22.5t117.5 -62.5q51 -43 80.5 -100t37.5 -125q3 -23 4 -43t1 -37q0 -50 -5.5 -100t-15.5 -100
l-258 -1212h-170z" />
    <glyph glyph-name="uni05DB" unicode="&#x5db;" horiz-adv-x="970" 
d="M251 -20q-91 0 -169.5 8t-148.5 26l33 153q6 -2 14.5 -5t20.5 -7q32 -9 106 -21t162 -12q79 0 149.5 33t116.5 81q46 49 88.5 127.5t65.5 179.5l37 177q11 45 16 85t5 74q0 66 -14 118t-43 89q-35 42 -92 64t-136 22q-59 0 -120 -8.5t-126 -25.5q-18 -5 -29.5 -8
t-16.5 -4l30 144q66 21 154.5 30.5t170.5 9.5q100 0 182 -33.5t127 -87.5q31 -38 49.5 -84t26.5 -95q8 -53 8 -96q0 -44 -5.5 -92.5t-16.5 -101.5l-37 -177q-17 -78 -42.5 -146.5t-64.5 -132.5q-34 -56 -87.5 -112t-122.5 -94q-56 -34 -133.5 -56t-157.5 -22z" />
    <glyph glyph-name="uni05DC" unicode="&#x5dc;" horiz-adv-x="979" 
d="M341 0l201 496l329 656h-692l88 413h169l-58 -269h690l-31 -143l-325 -652l-202 -501h-169z" />
    <glyph glyph-name="uni05DD" unicode="&#x5dd;" horiz-adv-x="1249" 
d="M17 0l274 1287q20 2 71 6t118.5 8t135.5 7t121 3q78 0 141.5 -6t115 -22.5t94.5 -47.5t64.5 -81.5t21.5 -112.5q0 -25 -3 -52.5t-10 -57.5l-198 -931h-946zM215 137h607l170 797q3 13 5 25.5t3 23.5t1 22q0 32 -8.5 56t-23.5 42q-25 32 -69.5 46.5t-99.5 18.5t-109 4
q-49 0 -113.5 -3.5t-145.5 -8.5z" />
    <glyph glyph-name="uni05DE" unicode="&#x5de;" horiz-adv-x="1244" 
d="M-39 0l295 961q8 26 14 55t9.5 55t3.5 46q0 22 -4.5 60.5t-9.5 73t-7 45.5h163q6 -27 10.5 -51.5t5.5 -46.5q1 -11 1.5 -21.5t0.5 -19.5h13q57 55 132 90.5t164 50.5q46 6 89 2.5t79 -14.5q96 -7 147.5 -48t71 -102t19.5 -125q0 -35 -5 -75.5t-15 -86.5l-180 -849h-441
l28 137h272l152 712q5 23 8 44t5 40t2 36q0 42 -14.5 84t-49 69.5t-96.5 28.5q-67 13 -130.5 0.5t-107.5 -33.5q-46 -22 -83 -50.5t-56 -53.5l-17 -23l-302 -991h-167z" />
    <glyph glyph-name="uni05DF" unicode="&#x5df;" horiz-adv-x="448" 
d="M-100 -488l291 1373q10 45 16 88t9 83.5t3 79.5q0 27 -0.5 52.5t-2.5 51t-5 51.5h170q3 -24 4.5 -47t1.5 -46q0 -31 -1 -81t-6.5 -110t-19.5 -122l-291 -1373h-169z" />
    <glyph glyph-name="uni05E0" unicode="&#x5e0;" horiz-adv-x="849" 
d="M-48 0l29 137h420q23 55 40.5 108t28.5 105l135 634q4 18 5.5 33t1.5 27q0 13 -1.5 24t-4.5 20q-6 37 -35 60t-84 23q-35 0 -75 -4.5t-89 -12.5l30 142q40 8 85.5 11.5t97.5 3.5q76 0 123.5 -18.5t74.5 -49.5q28 -31 39.5 -72.5t11.5 -86.5q0 -23 -3 -47.5t-8 -52.5
l-135 -634q-11 -50 -28 -106.5t-34.5 -108t-31.5 -84.5l-21 -51h-572z" />
    <glyph glyph-name="uni05E1" unicode="&#x5e1;" horiz-adv-x="1194" 
d="M454 -20q-119 0 -195.5 36t-119.5 95t-59.5 129.5t-16.5 140.5q0 41 3.5 84.5t10.5 89t17 93.5q38 178 108 306t171 206q-4 0 -25 -1t-48 -2t-50 -2t-31 -2l30 142q93 5 178 8.5t162.5 5.5t148.5 2q117 0 193.5 -34.5t120 -93t61 -132t17.5 -151.5q0 -55 -7 -118
t-21 -134q-36 -167 -96.5 -292t-143.5 -208.5t-185.5 -125.5t-222.5 -42zM484 121q82 0 146 30t114.5 88.5t89.5 144.5q31 58 53.5 126t38 138t23.5 132.5t8 109.5q0 78 -18.5 134t-55.5 91q-28 27 -72.5 42t-95.5 15q-26 0 -60.5 -0.5t-65 -2t-44.5 -3.5
q-106 -88 -173 -213.5t-105 -304.5q-15 -72 -23 -132t-8 -108q0 -139 58.5 -213t189.5 -74z" />
    <glyph glyph-name="uni05E2" unicode="&#x5e2;" horiz-adv-x="1244" 
d="M-74 -54l29 139l293 43q40 5 81 14.5t84 20.5l-56 -83l-64 1211h167l29 -579l12 -509q83 37 156 93.5t134 128.5q54 65 96.5 141.5t69.5 161.5l174 563h161l-174 -558q-26 -84 -63.5 -160t-87.5 -144.5t-112 -130.5q-107 -120 -259 -198.5t-341 -105.5z" />
    <glyph glyph-name="uni05E3" unicode="&#x5e3;" horiz-adv-x="1206" 
d="M658 -492l242 1138q15 73 23 132t8 105q0 131 -55 209t-189 78q-83 0 -146.5 -21t-106.5 -54q-24 -18 -45 -41t-38 -49q-41 -54 -61.5 -114t-20.5 -125q0 -39 11 -75.5t40 -64.5q21 -21 57 -37.5t87 -24.5l29 -5l-54 -125l-26 1q-105 1 -173 43.5t-101 110.5t-33 145
q0 27 2.5 56t10.5 66q25 117 91.5 209t159.5 146q80 50 164.5 75t173.5 25q106 0 181.5 -30t122.5 -82q51 -60 70 -134t19 -150q0 -124 -31 -269l-242 -1138h-170z" />
    <glyph glyph-name="uni05E4" unicode="&#x5e4;" horiz-adv-x="1176" 
d="M440 -20q-62 0 -118.5 2t-105 6t-84.5 9l-40 5l29 137q88 -10 175.5 -15t175.5 -5q76 0 139.5 26t109.5 70q53 53 90 126t64 162q16 54 32.5 121.5t27 136t10.5 126.5q0 87 -24.5 150.5t-79 98t-144.5 34.5q-78 0 -142.5 -22t-107.5 -57q-23 -20 -42.5 -41.5t-35.5 -44.5
q-41 -51 -61.5 -108.5t-20.5 -121.5q0 -49 18.5 -97.5t61 -80.5t114.5 -34l29 -4l-53 -126l-26 2q-106 1 -174 43.5t-100.5 110.5t-32.5 146q0 26 2.5 55t10.5 66q25 117 91.5 209t159.5 146q158 100 337 100q115 0 191 -33t120.5 -90t63.5 -131t19 -156q0 -34 -3.5 -72.5
t-10 -80t-16.5 -84t-22 -84.5q-79 -309 -237.5 -454.5t-389.5 -145.5z" />
    <glyph glyph-name="uni05E5" unicode="&#x5e5;" horiz-adv-x="981" 
d="M50 -492l222 1049l-117 734h176l116 -783l-80 62q33 7 65 13.5t64.5 13.5t64.5 14q78 18 135.5 89.5t82.5 186.5l85 404h168l-86 -408q-20 -94 -58 -168t-94 -126q-45 -41 -109 -72t-139 -45l-94 -18t-94 -19l73 75l-213 -1002h-168z" />
    <glyph glyph-name="uni05E6" unicode="&#x5e6;" horiz-adv-x="1111" 
d="M-69 0l29 137h623q30 0 60.5 -0.5t60.5 -1.5l-213 446l-290 710h183l238 -606q8 -16 15 -32t15 -32q97 81 164.5 182t105.5 224l81 264h159q-20 -64 -39.5 -127.5t-38.5 -127.5q-36 -118 -93.5 -219t-130.5 -183q-34 -38 -72 -72.5t-77 -64.5l191 -397l-21 -100h-950z
" />
    <glyph glyph-name="uni05E7" unicode="&#x5e7;" horiz-adv-x="1190" 
d="M528 0q2 7 3.5 13.5t3.5 13.5q8 37 36 109t75.5 175t111.5 232q4 7 7 13t5.5 11.5t4.5 9.5l297 577h-803l28 137h981l-25 -120l-308 -596q-3 -4 -15.5 -29l-30 -60t-35 -71.5t-31 -64.5t-18.5 -38q-23 -50 -47 -104.5t-42.5 -102.5t-24.5 -78l-6 -27h-167zM-80 -492
l266 1256h169l-267 -1256h-168z" />
    <glyph glyph-name="uni05E8" unicode="&#x5e8;" horiz-adv-x="1015" 
d="M564 0l195 917q4 22 6.5 41.5t2.5 36.5q0 35 -9.5 61t-25.5 46q-13 18 -33.5 30t-43.5 20q-31 11 -79.5 15.5t-87.5 4.5q-50 0 -96 -1.5t-101 -4.5t-131 -7l30 140q89 6 160.5 9t124.5 3q127 0 209.5 -11t150.5 -52q35 -20 57.5 -49.5t35.5 -65.5q8 -23 10.5 -47t2.5 -48
q0 -26 -3.5 -56t-11.5 -65l-195 -917h-168z" />
    <glyph glyph-name="uni05E9" unicode="&#x5e9;" horiz-adv-x="1476" 
d="M72 0l165 1291h161l-104 -807l-54 84q12 -11 21.5 -15.5t17.5 -4.5q89 21 143.5 43.5t104.5 58.5q73 54 120 144t79 194l93 303h157l-92 -302q-43 -137 -94 -231t-123 -164q-75 -73 -169.5 -112.5t-222.5 -60.5q-10 -1 -18.5 -1t-17.5 -0.5t-18 -0.5l74 75l-45 -358h279
q134 0 265.5 71.5t233.5 198.5q57 68 99.5 149t70.5 175l173 561h158l-174 -563q-28 -89 -67 -171t-89 -155t-108 -134q-81 -84 -176.5 -143.5t-202.5 -90.5q-54 -17 -110 -25.5t-113 -8.5h-417z" />
    <glyph glyph-name="uni05EA" unicode="&#x5ea;" horiz-adv-x="1301" 
d="M22 -4q-20 0 -42 4t-48 12l27 130q39 -6 80 -6q43 0 78 17.5t59 52.5q17 23 29 53.5t20 68.5l177 829q-37 -2 -73.5 -5t-73.5 -5l30 140q103 8 194 13.5t171 8t149 2.5q104 0 190 -14t147 -57q49 -34 70.5 -86t21.5 -110q0 -29 -4 -59.5t-11 -63.5l-196 -921h-169
l195 917q9 41 9 78q0 35 -9 61t-25 46q-23 30 -65 45t-92.5 20t-100.5 5q-40 0 -87 -1.5t-100 -4.5l-179 -838q-18 -84 -49.5 -146.5t-77.5 -103.5t-107 -61.5t-138 -20.5z" />
    <glyph glyph-name="uni20AA" unicode="&#x20aa;" horiz-adv-x="1593" 
d="M420 0l232 1090h152l-202 -959h269q104 0 180.5 32t127 103.5t75.5 189.5l215 1006h154l-215 -1006q-31 -145 -93 -247t-167 -155.5t-267 -53.5h-461zM57 0l312 1462h421q120 0 202.5 -40.5t124.5 -117.5t42 -187q0 -34 -4 -71t-13 -77l-125 -596h-154l136 638
q6 28 8.5 53.5t2.5 49.5q0 107 -60.5 162t-175.5 55h-280l-283 -1331h-154z" />
    <glyph glyph-name="uniFB2A" unicode="&#xfb2a;" horiz-adv-x="1476" 
d="M72 0l165 1291h161l-104 -807l-54 84q12 -11 21.5 -15.5t17.5 -4.5q89 21 143.5 43.5t104.5 58.5q73 54 120 144t79 194l93 303h157l-92 -302q-43 -137 -94 -231t-123 -164q-75 -73 -169.5 -112.5t-222.5 -60.5q-10 -1 -18.5 -1t-17.5 -0.5t-18 -0.5l74 75l-45 -358h279
q134 0 265.5 71.5t233.5 198.5q57 68 99.5 149t70.5 175l173 561h158l-174 -563q-28 -89 -67 -171t-89 -155t-108 -134q-81 -84 -176.5 -143.5t-202.5 -90.5q-54 -17 -110 -25.5t-113 -8.5h-417zM1486 1396q-29 0 -42.5 13t-13.5 35q0 44 23.5 75.5t65.5 31.5q30 0 44 -14
t14 -37q0 -45 -25 -74.5t-66 -29.5z" />
    <glyph glyph-name="uniFB2B" unicode="&#xfb2b;" horiz-adv-x="1476" 
d="M72 0l165 1291h161l-104 -807l-54 84q12 -11 21.5 -15.5t17.5 -4.5q89 21 143.5 43.5t104.5 58.5q73 54 120 144t79 194l93 303h157l-92 -302q-43 -137 -94 -231t-123 -164q-75 -73 -169.5 -112.5t-222.5 -60.5q-10 -1 -18.5 -1t-17.5 -0.5t-18 -0.5l74 75l-45 -358h279
q134 0 265.5 71.5t233.5 198.5q57 68 99.5 149t70.5 175l173 561h158l-174 -563q-28 -89 -67 -171t-89 -155t-108 -134q-81 -84 -176.5 -143.5t-202.5 -90.5q-54 -17 -110 -25.5t-113 -8.5h-417zM313 1394q-29 0 -42.5 13t-13.5 35q0 44 23.5 75.5t65.5 31.5q30 0 44 -14
t14 -37q0 -45 -25 -74.5t-66 -29.5z" />
    <glyph glyph-name="uniFB2C" unicode="&#xfb2c;" horiz-adv-x="1476" 
d="M72 0l165 1291h161l-104 -807l-54 84q12 -11 21.5 -15.5t17.5 -4.5q89 21 143.5 43.5t104.5 58.5q73 54 120 144t79 194l93 303h157l-92 -302q-43 -137 -94 -231t-123 -164q-75 -73 -169.5 -112.5t-222.5 -60.5q-10 -1 -18.5 -1t-17.5 -0.5t-18 -0.5l74 75l-45 -358h279
q134 0 265.5 71.5t233.5 198.5q57 68 99.5 149t70.5 175l173 561h158l-174 -563q-28 -89 -67 -171t-89 -155t-108 -134q-81 -84 -176.5 -143.5t-202.5 -90.5q-54 -17 -110 -25.5t-113 -8.5h-417zM761 369q-29 0 -42.5 13t-13.5 35q0 44 23.5 75.5t65.5 31.5q30 0 44 -14
t14 -37q0 -45 -25 -74.5t-66 -29.5zM1481 1396q-29 0 -42.5 13t-13.5 35q0 44 23.5 75.5t65.5 31.5q30 0 44 -14t14 -37q0 -45 -25 -74.5t-66 -29.5z" />
    <glyph glyph-name="uniFB2D" unicode="&#xfb2d;" horiz-adv-x="1476" 
d="M72 0l165 1291h161l-104 -807l-54 84q12 -11 21.5 -15.5t17.5 -4.5q89 21 143.5 43.5t104.5 58.5q73 54 120 144t79 194l93 303h157l-92 -302q-43 -137 -94 -231t-123 -164q-75 -73 -169.5 -112.5t-222.5 -60.5q-10 -1 -18.5 -1t-17.5 -0.5t-18 -0.5l74 75l-45 -358h279
q134 0 265.5 71.5t233.5 198.5q57 68 99.5 149t70.5 175l173 561h158l-174 -563q-28 -89 -67 -171t-89 -155t-108 -134q-81 -84 -176.5 -143.5t-202.5 -90.5q-54 -17 -110 -25.5t-113 -8.5h-417zM761 369q-29 0 -42.5 13t-13.5 35q0 44 23.5 75.5t65.5 31.5q30 0 44 -14
t14 -37q0 -45 -25 -74.5t-66 -29.5zM318 1394q-29 0 -42.5 13t-13.5 35q0 44 23.5 75.5t65.5 31.5q30 0 44 -14t14 -37q0 -45 -25 -74.5t-66 -29.5z" />
    <glyph glyph-name="uniFB2E" unicode="&#xfb2e;" horiz-adv-x="1163" 
d="M-37 0l96 454q17 77 43 145t65 123q42 58 105 97t139 56l-167 416h184l292 -744q15 5 28 11.5t25 14.5q64 34 99 89.5t56 156.5l101 472h165l-100 -472q-15 -72 -37 -128.5t-58 -112.5q-26 -37 -60.5 -67.5t-77 -53t-90.5 -35.5l169 -422h-186l-293 749q-18 -1 -37 -7.5
t-39 -18.5q-63 -35 -100.5 -99.5t-59.5 -169.5l-97 -454h-165zM260 -102l18 82h366l-18 -82h-366z" />
    <glyph glyph-name="uniFB2F" unicode="&#xfb2f;" horiz-adv-x="1163" 
d="M-37 0l96 454q17 77 43 145t65 123q42 58 105 97t139 56l-167 416h184l292 -744q15 5 28 11.5t25 14.5q64 34 99 89.5t56 156.5l101 472h165l-100 -472q-15 -72 -37 -128.5t-58 -112.5q-26 -37 -60.5 -67.5t-77 -53t-90.5 -35.5l169 -422h-186l-293 749q-18 -1 -37 -7.5
t-39 -18.5q-63 -35 -100.5 -99.5t-59.5 -169.5l-97 -454h-165zM338 -304l43 201h-141l18 83h363l-17 -83h-142l-43 -201h-81z" />
    <glyph glyph-name="uniFB30" unicode="&#xfb30;" horiz-adv-x="1163" 
d="M-37 0l96 454q17 77 43 145t65 123q42 58 105 97t139 56l-167 416h184l292 -744q15 5 28 11.5t25 14.5q64 34 99 89.5t56 156.5l101 472h165l-100 -472q-15 -72 -37 -128.5t-58 -112.5q-26 -37 -60.5 -67.5t-77 -53t-90.5 -35.5l169 -422h-186l-293 749q-18 -1 -37 -7.5
t-39 -18.5q-63 -35 -100.5 -99.5t-59.5 -169.5l-97 -454h-165zM381 245q-29 0 -42.5 13t-13.5 35q0 44 23.5 75.5t65.5 31.5q30 0 44 -14t14 -37q0 -45 -25 -74.5t-66 -29.5z" />
    <glyph glyph-name="uniFB31" unicode="&#xfb31;" horiz-adv-x="1087" 
d="M-40 0l29 137h628l167 780q5 22 7 41.5t2 36.5q0 37 -10.5 63.5t-28.5 46.5q-35 44 -107 55.5t-147 11.5q-32 0 -74 -1.5t-93 -4t-112 -6.5l-15 -2l29 139q75 7 146.5 10.5t137.5 3.5q123 0 209 -14t154 -61q30 -22 48.5 -52t28.5 -66q4 -17 6.5 -36.5t2.5 -40.5
q0 -17 -1.5 -36t-5 -40t-8.5 -44l-167 -784h149l-29 -137h-946zM383 589q-29 0 -42.5 13t-13.5 35q0 44 23.5 75.5t65.5 31.5q30 0 44 -14t14 -37q0 -45 -25 -74.5t-66 -29.5z" />
    <glyph glyph-name="uniFB32" unicode="&#xfb32;" horiz-adv-x="831" 
d="M60 -8q-30 0 -62 3.5t-68 9.5l54 152q28 -6 58 -9.5t63 -3.5q87 0 165 45.5t135.5 130t82.5 200.5l98 464q6 28 8.5 51.5t2.5 43.5q0 41 -25.5 66.5t-78.5 25.5q-35 0 -76 -5t-89 -15l29 141q46 10 90.5 14.5t86.5 4.5q75 0 128 -21t80.5 -64.5t27.5 -112.5
q0 -29 -3.5 -60t-10.5 -64l-210 -989h-135l22 206h-10q-44 -55 -94.5 -104t-115.5 -79.5t-153 -30.5zM261 591q-29 0 -42.5 13t-13.5 35q0 44 23.5 75.5t65.5 31.5q30 0 44 -14t14 -37q0 -45 -25 -74.5t-66 -29.5z" />
    <glyph glyph-name="uniFB33" unicode="&#xfb33;" horiz-adv-x="1028" 
d="M479 0l190 895q11 54 33.5 99.5t48.5 74.5q25 28 47 47.5t42 30.5l13 7h-704l30 137h946l-26 -123q-49 -16 -85 -34.5t-74 -49.5t-63.5 -78.5t-39.5 -112.5l-190 -893h-168zM335 589q-29 0 -42.5 13t-13.5 35q0 44 23.5 75.5t65.5 31.5q30 0 44 -14t14 -37
q0 -45 -25 -74.5t-66 -29.5z" />
    <glyph glyph-name="uniFB34" unicode="&#xfb34;" horiz-adv-x="1249" 
d="M793 0l195 917q5 22 7 41.5t2 36.5q0 61 -26 97t-77 56q-37 15 -93 19.5t-111 4.5q-64 0 -169.5 -6t-260.5 -19l30 140q95 8 174 13.5t142 8t110 2.5q128 0 215.5 -14t154.5 -62q31 -23 49.5 -53.5t28.5 -66.5q4 -17 6 -37t2 -40q0 -26 -3.5 -56t-11.5 -65l-195 -917
h-169zM17 0l170 799h168l-170 -799h-168zM608 589q-29 0 -42.5 13t-13.5 35q0 44 23.5 75.5t65.5 31.5q30 0 44 -14t14 -37q0 -45 -25 -74.5t-66 -29.5z" />
    <glyph glyph-name="uniFB35" unicode="&#xfb35;" horiz-adv-x="477" 
d="M18 0l275 1291h169l-275 -1291h-169zM-21 589q-29 0 -42.5 13t-13.5 35q0 44 23.5 75.5t65.5 31.5q30 0 44 -14t14 -37q0 -45 -25 -74.5t-66 -29.5z" />
    <glyph glyph-name="uniFB36" unicode="&#xfb36;" horiz-adv-x="598" 
d="M92 0l155 729q13 61 34.5 119t49.5 108t61 89q30 37 57 64.5t49 44.5h-281l29 137h449l-26 -124q-40 -26 -78.5 -70t-69.5 -94q-16 -25 -30 -54t-26 -59q-8 -19 -14.5 -38.5t-13 -39.5t-11.5 -41l-10 -42l-155 -729h-169zM-3 588q-29 0 -42.5 13t-13.5 35q0 44 23.5 75.5
t65.5 31.5q30 0 44 -14t14 -37q0 -45 -25 -74.5t-66 -29.5z" />
    <glyph glyph-name="uniFB38" unicode="&#xfb38;" horiz-adv-x="1249" 
d="M511 -20q-135 0 -219 52.5t-124 140.5q-26 50 -36 108.5t-10 118.5q0 55 7.5 117.5t22.5 132.5l136 641h170l-137 -641q-15 -71 -22.5 -130t-7.5 -107q0 -61 11 -109.5t33 -83.5q28 -47 80 -72.5t127 -25.5q80 0 146 29.5t115 83.5q46 48 82.5 119t61.5 153
q12 39 24.5 87t22.5 98.5t16 100t6 91.5q0 62 -10 111.5t-34 84.5q-27 42 -78.5 66.5t-126.5 24.5q-21 0 -42 -2.5t-42 -6.5l30 140q29 4 56.5 6.5t54.5 2.5q103 0 175 -30t115 -82q46 -55 62.5 -128t16.5 -148q0 -59 -8.5 -127t-25.5 -146q-15 -76 -36.5 -143t-47.5 -125
t-57 -108q-51 -83 -115 -143t-139 -96q-38 -18 -79 -30t-84.5 -18.5t-89.5 -6.5zM632 589q-29 0 -42.5 13t-13.5 35q0 44 23.5 75.5t65.5 31.5q30 0 44 -14t14 -37q0 -45 -25 -74.5t-66 -29.5z" />
    <glyph glyph-name="uniFB39" unicode="&#xfb39;" horiz-adv-x="446" 
d="M109 467l175 824h169l-143 -673l-154 -151h-47zM23 827q-29 0 -42.5 13t-13.5 35q0 44 23.5 75.5t65.5 31.5q30 0 44 -14t14 -37q0 -45 -25 -74.5t-66 -29.5z" />
    <glyph glyph-name="uniFB3A" unicode="&#xfb3a;" horiz-adv-x="1000" 
d="M451 -492l258 1212q11 45 16 85t5 75q0 72 -17 127t-53 92q-71 73 -216 73q-66 0 -124 -8.5t-122 -25.5q-17 -5 -28.5 -8t-17.5 -4l31 144q54 16 139 28t179 12q87 0 158.5 -22.5t117.5 -62.5q51 -43 80.5 -100t37.5 -125q3 -23 4 -43t1 -37q0 -50 -5.5 -100t-15.5 -100
l-258 -1212h-170zM353 590q-29 0 -42.5 13t-13.5 35q0 44 23.5 75.5t65.5 31.5q30 0 44 -14t14 -37q0 -45 -25 -74.5t-66 -29.5z" />
    <glyph glyph-name="uniFB3B" unicode="&#xfb3b;" horiz-adv-x="970" 
d="M251 -20q-91 0 -169.5 8t-148.5 26l33 153q6 -2 14.5 -5t20.5 -7q32 -9 106 -21t162 -12q79 0 149.5 33t116.5 81q46 49 88.5 127.5t65.5 179.5l37 177q11 45 16 85t5 74q0 66 -14 118t-43 89q-35 42 -92 64t-136 22q-59 0 -120 -8.5t-126 -25.5q-18 -5 -29.5 -8
t-16.5 -4l30 144q66 21 154.5 30.5t170.5 9.5q100 0 182 -33.5t127 -87.5q31 -38 49.5 -84t26.5 -95q8 -53 8 -96q0 -44 -5.5 -92.5t-16.5 -101.5l-37 -177q-17 -78 -42.5 -146.5t-64.5 -132.5q-34 -56 -87.5 -112t-122.5 -94q-56 -34 -133.5 -56t-157.5 -22zM339 590
q-29 0 -42.5 13t-13.5 35q0 44 23.5 75.5t65.5 31.5q30 0 44 -14t14 -37q0 -45 -25 -74.5t-66 -29.5z" />
    <glyph glyph-name="uniFB3C" unicode="&#xfb3c;" horiz-adv-x="979" 
d="M341 0l201 496l329 656h-692l88 413h169l-58 -269h690l-31 -143l-325 -652l-202 -501h-169zM328 590q-29 0 -42.5 13t-13.5 35q0 44 23.5 75.5t65.5 31.5q30 0 44 -14t14 -37q0 -45 -25 -74.5t-66 -29.5z" />
    <glyph glyph-name="uniFB3E" unicode="&#xfb3e;" horiz-adv-x="1244" 
d="M-39 0l295 961q8 26 14 55t9.5 55t3.5 46q0 22 -4.5 60.5t-9.5 73t-7 45.5h163q6 -27 10.5 -51.5t5.5 -46.5q1 -11 1.5 -21.5t0.5 -19.5h13q57 55 132 90.5t164 50.5q46 6 89 2.5t79 -14.5q96 -7 147.5 -48t71 -102t19.5 -125q0 -35 -5 -75.5t-15 -86.5l-180 -849h-441
l28 137h272l152 712q5 23 8 44t5 40t2 36q0 42 -14.5 84t-49 69.5t-96.5 28.5q-67 13 -130.5 0.5t-107.5 -33.5q-46 -22 -83 -50.5t-56 -53.5l-17 -23l-302 -991h-167zM616 589q-29 0 -42.5 13t-13.5 35q0 44 23.5 75.5t65.5 31.5q30 0 44 -14t14 -37q0 -45 -25 -74.5
t-66 -29.5z" />
    <glyph glyph-name="uniFB40" unicode="&#xfb40;" horiz-adv-x="849" 
d="M-48 0l29 137h420q23 55 40.5 108t28.5 105l135 634q4 18 5.5 33t1.5 27q0 13 -1.5 24t-4.5 20q-6 37 -35 60t-84 23q-35 0 -75 -4.5t-89 -12.5l30 142q40 8 85.5 11.5t97.5 3.5q76 0 123.5 -18.5t74.5 -49.5q28 -31 39.5 -72.5t11.5 -86.5q0 -23 -3 -47.5t-8 -52.5
l-135 -634q-11 -50 -28 -106.5t-34.5 -108t-31.5 -84.5l-21 -51h-572zM306 589q-29 0 -42.5 13t-13.5 35q0 44 23.5 75.5t65.5 31.5q30 0 44 -14t14 -37q0 -45 -25 -74.5t-66 -29.5z" />
    <glyph glyph-name="uniFB41" unicode="&#xfb41;" horiz-adv-x="1194" 
d="M454 -20q-119 0 -195.5 36t-119.5 95t-59.5 129.5t-16.5 140.5q0 41 3.5 84.5t10.5 89t17 93.5q38 178 108 306t171 206q-4 0 -25 -1t-48 -2t-50 -2t-31 -2l30 142q93 5 178 8.5t162.5 5.5t148.5 2q117 0 193.5 -34.5t120 -93t61 -132t17.5 -151.5q0 -55 -7 -118
t-21 -134q-36 -167 -96.5 -292t-143.5 -208.5t-185.5 -125.5t-222.5 -42zM484 121q82 0 146 30t114.5 88.5t89.5 144.5q31 58 53.5 126t38 138t23.5 132.5t8 109.5q0 78 -18.5 134t-55.5 91q-28 27 -72.5 42t-95.5 15q-26 0 -60.5 -0.5t-65 -2t-44.5 -3.5
q-106 -88 -173 -213.5t-105 -304.5q-15 -72 -23 -132t-8 -108q0 -139 58.5 -213t189.5 -74zM584 589q-29 0 -42.5 13t-13.5 35q0 44 23.5 75.5t65.5 31.5q30 0 44 -14t14 -37q0 -45 -25 -74.5t-66 -29.5z" />
    <glyph glyph-name="uniFB43" unicode="&#xfb43;" horiz-adv-x="1206" 
d="M658 -492l242 1138q15 73 23 132t8 105q0 131 -55 209t-189 78q-83 0 -146.5 -21t-106.5 -54q-24 -18 -45 -41t-38 -49q-41 -54 -61.5 -114t-20.5 -125q0 -39 11 -75.5t40 -64.5q21 -21 57 -37.5t87 -24.5l29 -5l-54 -125l-26 1q-105 1 -173 43.5t-101 110.5t-33 145
q0 27 2.5 56t10.5 66q25 117 91.5 209t159.5 146q80 50 164.5 75t173.5 25q106 0 181.5 -30t122.5 -82q51 -60 70 -134t19 -150q0 -124 -31 -269l-242 -1138h-170zM591 782q-29 0 -42.5 13t-13.5 35q0 44 23.5 75.5t65.5 31.5q30 0 44 -14t14 -37q0 -45 -25 -74.5t-66 -29.5
z" />
    <glyph glyph-name="uniFB44" unicode="&#xfb44;" horiz-adv-x="1176" 
d="M440 -20q-62 0 -118.5 2t-105 6t-84.5 9l-40 5l29 137q88 -10 175.5 -15t175.5 -5q76 0 139.5 26t109.5 70q53 53 90 126t64 162q16 54 32.5 121.5t27 136t10.5 126.5q0 87 -24.5 150.5t-79 98t-144.5 34.5q-78 0 -142.5 -22t-107.5 -57q-23 -20 -42.5 -41.5t-35.5 -44.5
q-41 -51 -61.5 -108.5t-20.5 -121.5q0 -49 18.5 -97.5t61 -80.5t114.5 -34l29 -4l-53 -126l-26 2q-106 1 -174 43.5t-100.5 110.5t-32.5 146q0 26 2.5 55t10.5 66q25 117 91.5 209t159.5 146q158 100 337 100q115 0 191 -33t120.5 -90t63.5 -131t19 -156q0 -34 -3.5 -72.5
t-10 -80t-16.5 -84t-22 -84.5q-79 -309 -237.5 -454.5t-389.5 -145.5zM615 768q-29 0 -42.5 13t-13.5 35q0 44 23.5 75.5t65.5 31.5q30 0 44 -14t14 -37q0 -45 -25 -74.5t-66 -29.5z" />
    <glyph glyph-name="uniFB46" unicode="&#xfb46;" horiz-adv-x="1111" 
d="M-69 0l29 137h623q30 0 60.5 -0.5t60.5 -1.5l-213 446l-290 710h183l238 -606q8 -16 15 -32t15 -32q97 81 164.5 182t105.5 224l81 264h159q-20 -64 -39.5 -127.5t-38.5 -127.5q-36 -118 -93.5 -219t-130.5 -183q-34 -38 -72 -72.5t-77 -64.5l191 -397l-21 -100h-950z
M201 425q-29 0 -42.5 13t-13.5 35q0 44 23.5 75.5t65.5 31.5q30 0 44 -14t14 -37q0 -45 -25 -74.5t-66 -29.5z" />
    <glyph glyph-name="uniFB47" unicode="&#xfb47;" horiz-adv-x="1190" 
d="M528 0q2 7 3.5 13.5t3.5 13.5q8 37 36 109t75.5 175t111.5 232q4 7 7 13t5.5 11.5t4.5 9.5l297 577h-803l28 137h981l-25 -120l-308 -596q-3 -4 -15.5 -29l-30 -60t-35 -71.5t-31 -64.5t-18.5 -38q-23 -50 -47 -104.5t-42.5 -102.5t-24.5 -78l-6 -27h-167zM-80 -492
l266 1256h169l-267 -1256h-168zM563 590q-29 0 -42.5 13t-13.5 35q0 44 23.5 75.5t65.5 31.5q30 0 44 -14t14 -37q0 -45 -25 -74.5t-66 -29.5z" />
    <glyph glyph-name="uniFB48" unicode="&#xfb48;" horiz-adv-x="1015" 
d="M564 0l195 917q4 22 6.5 41.5t2.5 36.5q0 35 -9.5 61t-25.5 46q-13 18 -33.5 30t-43.5 20q-31 11 -79.5 15.5t-87.5 4.5q-50 0 -96 -1.5t-101 -4.5t-131 -7l30 140q89 6 160.5 9t124.5 3q127 0 209.5 -11t150.5 -52q35 -20 57.5 -49.5t35.5 -65.5q8 -23 10.5 -47t2.5 -48
q0 -26 -3.5 -56t-11.5 -65l-195 -917h-168zM335 589q-29 0 -42.5 13t-13.5 35q0 44 23.5 75.5t65.5 31.5q30 0 44 -14t14 -37q0 -45 -25 -74.5t-66 -29.5z" />
    <glyph glyph-name="uniFB49" unicode="&#xfb49;" horiz-adv-x="1476" 
d="M72 0l165 1291h161l-104 -807l-54 84q12 -11 21.5 -15.5t17.5 -4.5q89 21 143.5 43.5t104.5 58.5q73 54 120 144t79 194l93 303h157l-92 -302q-43 -137 -94 -231t-123 -164q-75 -73 -169.5 -112.5t-222.5 -60.5q-10 -1 -18.5 -1t-17.5 -0.5t-18 -0.5l74 75l-45 -358h279
q134 0 265.5 71.5t233.5 198.5q57 68 99.5 149t70.5 175l173 561h158l-174 -563q-28 -89 -67 -171t-89 -155t-108 -134q-81 -84 -176.5 -143.5t-202.5 -90.5q-54 -17 -110 -25.5t-113 -8.5h-417zM761 369q-29 0 -42.5 13t-13.5 35q0 44 23.5 75.5t65.5 31.5q30 0 44 -14
t14 -37q0 -45 -25 -74.5t-66 -29.5z" />
    <glyph glyph-name="uniFB4A" unicode="&#xfb4a;" horiz-adv-x="1301" 
d="M22 -4q-20 0 -42 4t-48 12l27 130q39 -6 80 -6q43 0 78 17.5t59 52.5q17 23 29 53.5t20 68.5l177 829q-37 -2 -73.5 -5t-73.5 -5l30 140q103 8 194 13.5t171 8t149 2.5q104 0 190 -14t147 -57q49 -34 70.5 -86t21.5 -110q0 -29 -4 -59.5t-11 -63.5l-196 -921h-169
l195 917q9 41 9 78q0 35 -9 61t-25 46q-23 30 -65 45t-92.5 20t-100.5 5q-40 0 -87 -1.5t-100 -4.5l-179 -838q-18 -84 -49.5 -146.5t-77.5 -103.5t-107 -61.5t-138 -20.5zM692 586q-29 0 -42.5 13t-13.5 35q0 44 23.5 75.5t65.5 31.5q30 0 44 -14t14 -37q0 -45 -25 -74.5
t-66 -29.5z" />
    <glyph glyph-name="uniFB4B" unicode="&#xfb4b;" horiz-adv-x="477" 
d="M18 0l275 1291h169l-275 -1291h-169zM374 1396q-29 0 -42.5 13t-13.5 35q0 44 23.5 75.5t65.5 31.5q30 0 44 -14t14 -37q0 -45 -25 -74.5t-66 -29.5z" />
  </font>
</defs>
</svg>
